<svg width="313" height="49" viewBox="0 0 313 49" fill="none" xmlns="http://www.w3.org/2000/svg">
<path d="M57.3216 38.6042C57.105 38.7917 56.855 38.8833 56.5758 38.8833C55.9549 38.8833 55.4591 38.3875 55.4591 37.7667C55.4591 37.425 55.5841 37.1167 55.8299 36.8958C57.7216 35.2208 59.2425 33.4833 60.3592 31.7166C60.5758 31.3749 60.9175 31.1874 61.3217 31.1874C61.9425 31.1874 62.4384 31.6832 62.4384 32.3041C62.4384 32.5208 62.3759 32.7083 62.2842 32.8916C61.1383 34.7833 59.4925 36.675 57.3216 38.6V38.6042ZM77.6136 26.8457L69.1135 26.9998V39.4125C69.1135 41.7375 67.7801 43.0126 65.5759 43.0126C65.3259 43.0126 65.0801 43.0126 64.8301 42.9834C64.2092 42.8917 63.7759 42.3334 63.8675 41.7125C63.9592 41 64.4259 40.6584 65.2009 40.75C66.2884 40.8417 66.8468 40.4084 66.8468 39.4167V27.0373L57.8508 27.1915C57.23 27.1915 56.705 26.6957 56.705 26.0748C56.705 25.454 57.2008 24.929 57.8216 24.929L66.8176 24.804V19.9623C66.8176 19.3414 67.3759 18.8164 67.9968 18.8164C68.6176 18.8164 69.1135 19.3456 69.1135 19.9623V24.7415L77.5844 24.6165C78.2052 24.6165 78.7344 25.1123 78.7344 25.7332C78.7344 26.354 78.2386 26.8498 77.6177 26.8498L77.6136 26.8457ZM80.3761 36.7125C80.3761 37.3333 79.8469 37.8292 79.2303 37.8292C78.8886 37.8292 78.6386 37.7042 78.4219 37.4875C76.8386 35.8125 75.1969 34.1999 73.4593 32.6458C73.2093 32.4291 73.0885 32.1166 73.0885 31.7791C73.0885 31.1874 73.5552 30.6624 74.176 30.6624C74.4552 30.6624 74.7344 30.7541 74.951 30.9749C76.5011 32.3083 78.2094 33.9541 80.0719 35.9375C80.2886 36.1541 80.3844 36.4333 80.3844 36.7125H80.3761Z" fill="white"/>
<path d="M93.6221 32.2764C93.6221 32.9264 93.3138 33.2389 92.6929 33.2389C92.2888 33.2389 91.9804 33.0514 91.8263 32.7097C91.4221 31.8431 90.7387 30.568 89.8096 28.8638C89.7179 28.7097 89.6846 28.5513 89.6846 28.3972C89.6846 27.7472 89.9971 27.4347 90.6137 27.4347C91.0179 27.4347 91.2971 27.6222 91.4804 27.9638C92.3804 29.6389 93.0638 30.943 93.5263 31.8722C93.5888 31.9972 93.618 32.1222 93.618 32.2764H93.6221ZM102.526 36.9931C100.231 39.8182 97.343 41.8349 93.9013 43.0432C93.8096 43.0724 93.6846 43.1057 93.593 43.1057C92.9429 43.1057 92.6304 42.7974 92.6304 42.1765C92.6304 41.7723 92.8471 41.464 93.2804 41.3098C96.3847 40.164 98.9889 38.3306 101.068 35.7556C103.147 33.1806 104.514 30.1722 105.131 26.7596C105.222 26.168 105.597 25.9221 106.218 26.0138C106.839 26.1388 107.085 26.5096 106.993 27.1013C106.343 30.8847 104.851 34.1764 102.526 36.9973V36.9931ZM99.3597 30.0722C99.3597 30.6597 99.0805 30.9722 98.493 30.9722C98.0263 30.9722 97.718 30.7555 97.593 30.3222C97.343 29.5764 96.9097 28.493 96.2263 27.0347C96.1638 26.9096 96.1347 26.7846 96.1347 26.6305C96.1347 26.0388 96.4472 25.7305 97.0638 25.7305C97.468 25.7305 97.7472 25.918 97.9013 26.2596C98.4889 27.5305 98.9889 28.7097 99.3264 29.7972C99.3555 29.8889 99.3555 29.9847 99.3555 30.0764L99.3597 30.0722Z" fill="white"/>
<path d="M133.893 42.451C131.568 42.8843 129.21 43.101 126.756 43.101C124.927 43.101 123.406 42.9468 122.164 42.6343C120.643 42.2635 119.372 41.5468 118.41 40.4926C117.385 39.3426 116.86 38.0426 116.86 36.5217C116.86 33.9467 118.568 31.4008 122.01 28.8258C120.364 25.7216 118.722 23.2424 117.139 21.3798C116.952 21.1632 116.86 20.884 116.86 20.6048C116.86 19.984 117.389 19.459 118.039 19.459C118.41 19.459 118.722 19.584 118.939 19.8632C120.585 21.7882 122.227 24.3299 123.935 27.4633C125.889 26.1591 128.56 24.6091 131.939 22.8424C132.093 22.7507 132.248 22.7174 132.435 22.7174C133.085 22.7174 133.706 23.2465 133.706 23.8965C133.706 24.3924 133.489 24.7632 133.023 25.0132C131.535 25.7882 129.268 26.9674 126.322 28.7049C124.272 29.9133 122.814 31.03 121.822 31.93C120.085 33.5133 119.218 35.0634 119.218 36.5217C119.218 37.4842 119.56 38.3217 120.243 39.0342C120.864 39.6551 121.668 40.0884 122.693 40.3384C123.843 40.6176 125.206 40.7718 126.756 40.7718C128.96 40.7718 131.193 40.5551 133.456 40.1218C134.077 39.9968 134.698 40.4634 134.823 41.0843C134.948 41.7051 134.514 42.326 133.893 42.451Z" fill="white"/>
<path d="M145.835 44.0958C145.619 44.6541 145.027 44.9333 144.469 44.7166C143.91 44.5 143.631 43.9083 143.848 43.35L147.51 34.3832C147.727 33.8248 148.319 33.5457 148.877 33.7623C149.435 33.979 149.685 34.5707 149.469 35.129L145.839 44.0958H145.835ZM146.519 29.1414L144.252 27.2164C143.819 26.8456 143.756 26.1622 144.127 25.7289C144.498 25.2956 145.152 25.2331 145.585 25.6039L147.881 27.5914C148.314 27.9623 148.377 28.6164 148.006 29.0498C147.635 29.4831 146.952 29.5164 146.519 29.1414ZM148.439 21.9747L145.864 19.4621C145.46 19.058 145.431 18.408 145.831 18.0038C146.235 17.5996 146.919 17.5704 147.319 17.9746L149.894 20.4872C150.298 20.8913 150.327 21.5413 149.923 21.9455C149.519 22.3497 148.835 22.3788 148.435 21.9747H148.439ZM170.252 32.5831H161.656L157.002 41.5499L166.219 39.9999L164.419 37.454C164.077 36.9874 164.169 36.3665 164.636 36.029C165.102 35.6874 165.781 35.779 166.123 36.2457L170.965 43.1333C171.306 43.6 171.181 44.2208 170.715 44.5583C170.248 44.9 169.627 44.8083 169.286 44.3416L167.519 41.7958L152.223 44.4C151.665 44.4916 151.135 44.1208 151.044 43.5625C150.952 43.0041 151.323 42.5083 151.881 42.4166L154.394 41.9833L159.265 32.5831H152.44C151.881 32.5831 151.448 32.0873 151.448 31.529C151.448 30.9706 151.881 30.504 152.44 30.504H160.227V24.4247H154.206C153.648 24.4247 153.215 23.958 153.215 23.3997C153.215 22.8414 153.648 22.3455 154.206 22.3455H160.165V18.1246C160.165 17.5329 160.694 17.0371 161.281 17.0371C161.869 17.0371 162.398 17.5329 162.398 18.1246V22.3455H168.573C169.131 22.3455 169.598 22.8414 169.598 23.3997C169.598 23.958 169.131 24.4247 168.573 24.4247H162.398V30.504H170.248C170.806 30.504 171.273 30.9706 171.273 31.529C171.273 32.0873 170.806 32.5831 170.248 32.5831H170.252Z" fill="white"/>
<path d="M184.273 30.3844C184.49 30.5719 184.586 30.8178 184.586 31.1303V44.0679C184.586 44.6263 184.152 45.0929 183.594 45.0929C183.036 45.0929 182.569 44.6263 182.569 44.0679V32.4344C181.823 33.3345 181.019 34.2345 180.182 35.072C179.811 35.4428 179.157 35.4428 178.786 35.072C178.415 34.7011 178.415 34.047 178.786 33.6761C180.99 31.4719 183.719 27.9052 185.177 25.6719C185.49 25.2052 186.107 25.051 186.573 25.3635C187.04 25.6719 187.194 26.326 186.882 26.7885C186.136 27.9052 184.836 29.6719 184.277 30.3886L184.273 30.3844ZM180.832 25.5427C180.427 25.9135 179.777 25.8844 179.407 25.4802C179.036 25.076 179.065 24.426 179.469 24.0552C181.019 22.6593 183.44 19.8676 184.836 17.9426C185.177 17.4759 185.798 17.3842 186.261 17.6926C186.727 18.0009 186.819 18.6551 186.477 19.1176C185.298 20.7301 182.815 23.7385 180.832 25.5385V25.5427ZM206.024 26.5969H204.099V28.0552C204.099 30.0094 202.919 31.2219 200.965 31.2219H197.398V33.7345H203.665C204.194 33.7345 204.628 34.1678 204.628 34.697C204.628 35.2261 204.194 35.6887 203.665 35.6887H197.398V38.172H205.807C206.365 38.172 206.799 38.6054 206.799 39.1637C206.799 39.722 206.365 40.1262 205.807 40.1262H197.428V44.1888C197.428 44.7471 196.869 45.2138 196.311 45.2138C195.753 45.2138 195.319 44.7471 195.319 44.1888V40.1262H187.686C187.127 40.1262 186.694 39.722 186.694 39.1637C186.694 38.6054 187.127 38.172 187.686 38.172H195.382V35.6887H189.64C189.111 35.6887 188.678 35.222 188.678 34.697C188.678 34.172 189.111 33.7345 189.64 33.7345H195.382V31.2219H190.198C189.669 31.2219 189.236 30.7553 189.236 30.2303C189.236 29.7052 189.669 29.2677 190.198 29.2677H195.382V26.601H188.432C187.902 26.601 187.44 26.1344 187.44 25.6094C187.44 25.0843 187.907 24.6177 188.432 24.6177H195.382V21.9801H190.198C189.669 21.9801 189.236 21.5468 189.236 21.0176C189.236 20.4885 189.669 20.0259 190.198 20.0259H195.319V18.1968C195.319 17.6384 195.753 17.2051 196.311 17.2051C196.869 17.2051 197.428 17.6384 197.428 18.1968V20.0259H200.932C202.886 20.0259 204.099 21.2343 204.099 23.1927V24.6218H206.024C206.553 24.6218 206.986 25.0885 206.986 25.6135C206.986 26.1385 206.553 26.6052 206.024 26.6052V26.5969ZM202.149 24.6135V23.1843C202.149 22.3176 201.807 21.976 200.94 21.976H197.403V24.6135H202.149ZM202.149 26.5969H197.403V29.2636H200.94C201.807 29.2636 202.149 28.9219 202.149 28.0552V26.5969Z" fill="white"/>
<path d="M241.082 36.2803H238.911V37.4595C238.911 38.8845 237.949 40.0971 236.461 40.0971H229.17V41.8971C229.17 44.3471 227.865 45.0305 225.57 45.0305C225.011 45.0305 224.545 44.5971 224.545 44.0388C224.545 43.4804 225.011 43.0138 225.57 43.0138C226.624 43.0138 227.153 43.1388 227.153 41.8971V40.0971H217.315C216.786 40.0971 216.353 39.6929 216.353 39.1679C216.353 38.6429 216.786 38.2054 217.315 38.2054H227.153V36.2803H214.928C214.399 36.2803 213.999 35.8762 213.999 35.3512C213.999 34.8261 214.403 34.3886 214.928 34.3886H227.153V32.5261H217.315C216.786 32.5261 216.353 32.1219 216.353 31.5969C216.353 31.0719 216.786 30.6678 217.315 30.6678H227.153V28.8677H219.582C218.432 28.8677 217.532 27.9386 217.532 26.7885V25.2052C217.532 24.0593 218.432 23.126 219.582 23.126H227.153V21.5135H215.736C215.207 21.5135 214.807 21.1093 214.807 20.5843C214.807 20.0593 215.211 19.6551 215.736 19.6551H227.124V17.9176C227.124 17.3593 227.59 16.8926 228.149 16.8926C228.707 16.8926 229.203 17.3593 229.203 17.9176V19.6551H240.495C241.024 19.6551 241.424 20.0593 241.424 20.5843C241.424 21.1093 241.02 21.5135 240.495 21.5135H229.17V23.126H235.995C237.141 23.126 238.074 24.0552 238.074 25.2052V26.7885C238.074 27.9344 237.145 28.8677 235.995 28.8677H229.17V30.6678H236.461C237.949 30.6678 238.911 31.8761 238.911 33.3053V34.3928H241.082C241.612 34.3928 242.012 34.8261 242.012 35.3553C242.012 35.8845 241.607 36.2845 241.082 36.2845V36.2803ZM227.153 27.001V24.9844H219.582C219.457 24.9844 219.395 25.076 219.395 25.201V26.7844C219.395 26.9094 219.457 27.001 219.582 27.001H227.153ZM236.211 25.201C236.211 25.076 236.12 24.9844 235.995 24.9844H229.17V27.001H235.995C236.12 27.001 236.211 26.9094 236.211 26.7844V25.201ZM237.02 34.3845V33.297C237.02 32.9261 236.866 32.522 236.428 32.522H229.17V34.3845H237.02ZM237.02 36.2803H229.17V38.2054H236.428C236.861 38.2054 237.02 37.8345 237.02 37.4595V36.2803Z" fill="white"/>
<path d="M260.412 32.2749C260.133 32.7082 259.545 32.8332 259.108 32.554C258.674 32.2749 258.516 31.6832 258.795 31.2499C259.166 30.629 259.82 29.6665 260.037 29.3582H257.12V41.2083C257.12 43.475 256.128 44.6542 253.833 44.6834C253.303 44.6834 252.841 44.2167 252.841 43.6917C252.841 43.1667 253.308 42.7292 253.833 42.7292C254.978 42.7292 255.166 42.3875 255.166 41.2083V32.7082C254.203 34.4124 252.87 36.6791 251.382 38.7875C251.074 39.2208 250.482 39.3166 250.049 39.0041C249.616 38.6916 249.52 38.1041 249.832 37.6708C251.695 35.0332 253.308 32.2082 254.795 29.354H251.012C250.482 29.354 250.049 28.9498 250.049 28.4248C250.049 27.8998 250.482 27.4623 251.012 27.4623H260.166C261.687 27.4623 262.553 29.1082 261.653 30.379C261.22 30.9999 260.816 31.6207 260.412 32.2707V32.2749ZM256.595 24.5498L257.37 25.3581C257.741 25.729 257.712 26.3498 257.337 26.7248C256.966 27.0956 256.374 27.0665 256.003 26.6956L252.778 23.3456C252.407 22.9748 252.437 22.3831 252.812 22.0122C253.183 21.6414 253.803 21.6706 254.178 22.0456L255.266 23.1914C256.166 22.4456 257.716 21.0206 258.399 20.3664C258.553 20.2122 258.462 20.0247 258.274 20.0247H251.603C251.074 20.0247 250.674 19.6205 250.674 19.0955C250.674 18.5705 251.078 18.133 251.603 18.133H258.428C260.383 18.133 261.345 20.2122 259.887 21.5456L256.599 24.5539L256.595 24.5498ZM275.458 41.8625C274.745 44.1584 273.316 44.7792 271.02 44.8084C270.491 44.8084 270.058 44.375 270.058 43.8459C270.058 43.3167 270.462 42.8542 270.987 42.8542C272.445 42.825 273.004 42.7625 273.499 41.2708C273.966 39.8125 274.149 38.0125 274.274 37.0208C274.337 36.6499 274.087 36.3374 273.683 36.3374H269.12C267.974 40.2458 266.049 42.9167 262.108 44.5292C261.612 44.7459 261.053 44.5 260.837 44C260.62 43.5042 260.866 42.9459 261.366 42.7292C264.249 41.55 266.083 39.2208 267.074 36.3374H262.078C261.549 36.3374 261.116 35.8708 261.116 35.3458C261.116 34.8207 261.549 34.3832 262.078 34.3832H267.508C267.633 33.6999 267.724 33.0166 267.758 32.3374C267.791 31.8082 268.287 31.3749 268.812 31.3749C269.337 31.3749 269.804 31.8415 269.804 32.3665C269.804 32.8624 269.679 33.8249 269.587 34.3832H273.683C275.266 34.3832 276.508 35.7791 276.287 37.2999C276.162 38.2 275.979 40.125 275.449 41.8625H275.458ZM275.862 31.6249C273.287 30.9415 271.241 29.7957 269.72 28.6457C268.262 29.9498 266.308 31.1582 263.762 31.9332C263.266 32.0874 262.708 31.8415 262.553 31.3124C262.399 30.8165 262.708 30.2582 263.203 30.104C265.345 29.454 266.987 28.4582 268.229 27.404C267.174 26.4123 266.462 25.5415 266.024 24.8581C265.745 24.4248 265.87 23.8331 266.304 23.5539C266.737 23.2748 267.295 23.3998 267.608 23.8331C268.166 24.6414 268.879 25.4165 269.595 26.0665C270.587 24.9206 271.362 23.5831 271.862 22.1581H265.904C265.374 22.9664 264.816 23.8331 264.195 24.6706C263.887 25.1039 263.266 25.1664 262.828 24.8581C262.395 24.5456 262.333 23.9289 262.641 23.4914C263.82 21.9414 265.245 19.6455 266.179 17.9705C266.429 17.5038 267.016 17.3205 267.483 17.5663C267.949 17.8122 268.133 18.4039 267.887 18.8705C267.699 19.2414 267.358 19.833 267.112 20.2664H275.891C276.42 20.2664 276.82 20.6997 276.82 21.2289C276.82 21.7581 276.416 22.1581 275.891 22.1581H273.874C273.345 24.0206 272.354 25.8206 271.083 27.279C272.416 28.2415 274.154 29.204 276.324 29.7623C276.82 29.8873 277.133 30.4457 277.008 30.9415C276.883 31.4374 276.358 31.7499 275.858 31.6249H275.862Z" fill="white"/>
<path d="M297.3 31.8709C297.3 33.4542 296.246 34.5084 294.662 34.5084H288.829C288.8 38.8501 287.837 42.2335 286.904 44.0335C286.625 44.5294 286.004 44.7461 285.508 44.4669C285.012 44.1877 284.825 43.5669 285.075 43.071C286.283 40.5585 286.783 37.0835 286.783 34.3542V27.1542C286.783 25.6333 287.9 24.5166 289.42 24.5166H294.662C296.183 24.5166 297.3 25.6333 297.3 27.1542V31.8709ZM296.679 20.4207H286.875C286.316 20.4207 285.82 19.9541 285.82 19.3957C285.82 18.8374 286.316 18.3415 286.875 18.3415H296.679C297.237 18.3415 297.733 18.8374 297.733 19.3957C297.733 19.9541 297.237 20.4207 296.679 20.4207ZM295.25 27.1542C295.25 26.7833 295.033 26.5958 294.658 26.5958H289.416C289.045 26.5958 288.825 26.7833 288.825 27.1542V32.4584H294.658C295.091 32.4584 295.25 32.3042 295.25 31.8667V27.15V27.1542ZM311.975 28.8H309.275V43.6294C309.275 44.221 308.808 44.6836 308.221 44.6836C307.633 44.6836 307.167 44.2169 307.167 43.6294V28.8H302.387V30.4125C302.387 36.0293 300.029 41.3043 298.104 43.8794C297.762 44.3461 297.05 44.4086 296.616 44.0669C296.15 43.7252 296.087 43.0752 296.429 42.6085C298.879 39.321 300.275 34.4168 300.275 30.4167V21.3582C300.275 19.7457 301.425 18.504 303.037 18.4415C305.458 18.3499 308.779 18.0082 310.7 17.7915C311.258 17.729 311.787 18.1332 311.85 18.6915C311.912 19.2499 311.508 19.7457 310.95 19.8374C309.15 20.1499 306.05 20.3957 303.133 20.5207C302.637 20.5541 302.387 20.8624 302.387 21.3582V26.7875H311.975C312.533 26.7875 313 27.2208 313 27.7792C313 28.3375 312.533 28.8042 311.975 28.8042V28.8Z" fill="white"/>
<path d="M5.59174 48.1347C8.67997 48.1347 11.1835 45.6311 11.1835 42.5429C11.1835 39.4547 8.67997 36.9512 5.59174 36.9512C2.50351 36.9512 0 39.4547 0 42.5429C0 45.6311 2.50351 48.1347 5.59174 48.1347Z" fill="white"/>
<path d="M17.3753 33.0514C21.407 33.0514 24.6754 29.783 24.6754 25.7513C24.6754 21.7195 21.407 18.4512 17.3753 18.4512C13.3436 18.4512 10.0752 21.7195 10.0752 25.7513C10.0752 29.783 13.3436 33.0514 17.3753 33.0514Z" fill="white"/>
<path d="M36.9921 21.9003C43.0397 21.9003 47.9423 16.9977 47.9423 10.9501C47.9423 4.90255 43.0397 0 36.9921 0C30.9445 0 26.042 4.90255 26.042 10.9501C26.042 16.9977 30.9445 21.9003 36.9921 21.9003Z" fill="white"/>
</svg>
