<svg width="165" height="26" viewBox="0 0 165 26" fill="none" xmlns="http://www.w3.org/2000/svg">
<path d="M30.1011 20.4543C29.9917 20.5426 29.8605 20.6088 29.7073 20.6088C29.3792 20.6088 29.1167 20.344 29.1167 20.013C29.1167 19.6821 29.1823 19.66 29.3136 19.5497C30.298 18.6671 31.1074 17.7404 31.698 16.8137C31.8074 16.6371 31.9824 16.5268 32.2012 16.5268C32.5293 16.5268 32.7918 16.7916 32.7918 17.1226C32.7918 17.4535 32.77 17.3432 32.7043 17.4315C32.0918 18.4244 31.2387 19.4394 30.1011 20.4543ZM40.7546 14.2321L36.292 14.3204V20.8956C36.292 22.1312 35.5919 22.7932 34.4325 22.7932C33.2731 22.7932 34.17 22.7932 34.0388 22.7932C33.7106 22.749 33.4919 22.4401 33.5356 22.1092C33.5794 21.7341 33.82 21.5576 34.2356 21.6017C34.8044 21.6458 35.0888 21.4252 35.0888 20.8956V14.3424L30.3636 14.4307C30.0355 14.4307 29.7511 14.1659 29.7511 13.8349C29.7511 13.504 30.0136 13.2171 30.3417 13.2171L35.0669 13.1509V10.5914C35.0669 10.2605 35.3513 9.97363 35.6794 9.97363C36.0076 9.97363 36.2701 10.2605 36.2701 10.5914V13.1289L40.7109 13.0627C41.039 13.0627 41.3234 13.3275 41.3234 13.6584C41.3234 13.9894 41.0609 14.2542 40.7328 14.2542L40.7546 14.2321ZM42.1984 19.4394C42.1984 19.7703 41.9141 20.0351 41.5859 20.0351C41.2578 20.0351 41.2797 19.9689 41.1703 19.8586C40.339 18.976 39.4858 18.1155 38.5671 17.2991C38.4358 17.1888 38.3702 17.0122 38.3702 16.8357C38.3702 16.5268 38.6108 16.24 38.9389 16.24C39.2671 16.24 39.2233 16.2841 39.3546 16.3944C40.164 17.1005 41.0609 17.961 42.0453 19.0201C42.1547 19.1304 42.1984 19.2849 42.1984 19.4394Z" fill="#2D3243"/>
<path d="M49.155 17.1005C49.155 17.4535 49.0018 17.608 48.6737 17.608C48.3456 17.608 48.3018 17.5197 48.2143 17.3211C47.9955 16.8578 47.6455 16.1958 47.1643 15.2912C47.1205 15.2029 47.0986 15.1367 47.0986 15.0485C47.0986 14.6954 47.2518 14.541 47.5799 14.541C47.908 14.541 47.9299 14.6292 48.0393 14.8278C48.5206 15.7104 48.8706 16.3944 49.1112 16.9019C49.1331 16.9681 49.155 17.0343 49.155 17.1225V17.1005ZM53.8145 19.5938C52.6113 21.0942 51.1019 22.1533 49.2862 22.7931C49.2425 22.7931 49.1768 22.8152 49.1331 22.8152C48.7831 22.8152 48.6299 22.6608 48.6299 22.3298C48.6299 21.9988 48.7393 21.9547 48.98 21.8664C50.5988 21.2486 51.9769 20.2998 53.0707 18.9318C54.1645 17.5638 54.8864 15.9752 55.2146 14.1659C55.2583 13.857 55.4552 13.7246 55.7833 13.7687C56.1115 13.8349 56.2427 14.0335 56.199 14.3424C55.849 16.3503 55.0833 18.0934 53.8583 19.5938H53.8145ZM52.1519 15.931C52.1519 16.2399 51.9988 16.4165 51.6926 16.4165C51.3863 16.4165 51.2769 16.3061 51.2113 16.0634C51.08 15.6663 50.8613 15.0926 50.4894 14.3203C50.4675 14.2541 50.4456 14.1879 50.4456 14.0997C50.4456 13.7908 50.5988 13.6143 50.9269 13.6143C51.255 13.6143 51.2769 13.7025 51.3644 13.9011C51.6707 14.5851 51.9332 15.2029 52.1082 15.7766C52.1082 15.8207 52.1082 15.8648 52.1082 15.931H52.1519Z" fill="#2D3243"/>
<path d="M70.2869 22.4844C69.0619 22.705 67.8368 22.8374 66.5461 22.8374C65.2555 22.8374 64.7961 22.7491 64.1398 22.5947C63.3523 22.3961 62.6741 22.021 62.171 21.4694C61.6241 20.8516 61.3616 20.1676 61.3616 19.3732C61.3616 18.0052 62.2585 16.6593 64.0742 15.2913C63.221 13.6585 62.346 12.3346 61.5147 11.3417C61.4272 11.2314 61.3616 11.0769 61.3616 10.9225C61.3616 10.5915 61.646 10.3047 61.9741 10.3047C62.3022 10.3047 62.3241 10.3709 62.4554 10.5253C63.3085 11.5403 64.1836 12.8862 65.0805 14.5411C66.1086 13.8571 67.5087 13.0407 69.2806 12.0919C69.3681 12.0478 69.4337 12.0257 69.5431 12.0257C69.8931 12.0257 70.2213 12.3126 70.2213 12.6435C70.2213 12.9745 70.1119 13.1069 69.8713 13.2393C69.0837 13.6585 67.9024 14.2763 66.3493 15.203C65.2773 15.8429 64.5117 16.4387 63.9867 16.902C63.0679 17.7405 62.6085 18.5569 62.6085 19.3291C62.6085 20.1014 62.7835 20.2779 63.1554 20.653C63.4835 20.984 63.8992 21.2046 64.4461 21.337C65.0586 21.4914 65.7586 21.5576 66.5899 21.5576C67.7493 21.5576 68.9087 21.4473 70.1119 21.2046C70.44 21.1384 70.7682 21.3811 70.8338 21.7121C70.8994 22.0431 70.6807 22.374 70.3525 22.4402L70.2869 22.4844Z" fill="#2D3243"/>
<path d="M76.5653 23.3664C76.4559 23.6533 76.1496 23.8077 75.8433 23.6974C75.559 23.5871 75.4058 23.2782 75.5152 22.9693L77.4403 18.2254C77.5497 17.9385 77.8559 17.7841 78.1622 17.8944C78.4466 18.0047 78.5778 18.3136 78.4684 18.6225L76.5653 23.3664ZM76.9153 15.4452L75.734 14.4302C75.5152 14.2317 75.4715 13.8786 75.6683 13.6359C75.8652 13.4153 76.2152 13.3711 76.434 13.5697L77.6372 14.6288C77.8559 14.8274 77.8997 15.1804 77.7028 15.4011C77.5059 15.6217 77.1559 15.6438 76.9153 15.4452ZM77.9215 11.6501L76.5653 10.3262C76.3465 10.1056 76.3465 9.77461 76.5653 9.55397C76.784 9.33332 77.134 9.33332 77.3528 9.55397L78.7091 10.8778C78.9278 11.0985 78.9278 11.4295 78.7091 11.6501C78.4903 11.8707 78.1403 11.8707 77.9215 11.6501ZM89.3845 17.2545H84.8781L82.428 21.9984L87.2625 21.182L86.3219 19.8361C86.1469 19.5934 86.1906 19.2624 86.4312 19.0859C86.6719 18.9094 87.0438 18.9535 87.2188 19.1962L89.7564 22.8369C89.9314 23.0796 89.8657 23.4105 89.6251 23.5871C89.3845 23.7636 89.0563 23.7194 88.8813 23.4767L87.9625 22.1308L79.9341 23.5209C79.6497 23.565 79.3654 23.3664 79.3216 23.0796C79.2778 22.7927 79.4747 22.528 79.7591 22.4618L81.0717 22.2411L83.6311 17.2545H80.0435C79.7591 17.2545 79.5185 16.9897 79.5185 16.7029C79.5185 16.4161 79.7372 16.1513 80.0435 16.1513H84.1343V12.9299H80.9842C80.6998 12.9299 80.4591 12.6871 80.4591 12.3782C80.4591 12.0693 80.6779 11.8266 80.9842 11.8266H84.1124V9.59809C84.1124 9.28919 84.3968 9.02441 84.7031 9.02441C85.0093 9.02441 85.2937 9.28919 85.2937 9.59809V11.8266H88.5313C88.8157 11.8266 89.0782 12.0914 89.0782 12.3782C89.0782 12.6651 88.8376 12.9299 88.5313 12.9299H85.2937V16.1513H89.4064C89.6907 16.1513 89.9532 16.394 89.9532 16.7029C89.9532 17.0118 89.7126 17.2545 89.4064 17.2545H89.3845Z" fill="#2D3243"/>
<path d="M96.7349 16.1078C96.8443 16.196 96.888 16.3284 96.888 16.5049V23.367C96.888 23.6539 96.6693 23.9186 96.363 23.9186C96.0567 23.9186 95.8161 23.6759 95.8161 23.367V17.211C95.4223 17.6964 95.0067 18.1598 94.5692 18.6011C94.1317 19.0424 94.0223 18.7996 93.8254 18.6011C93.6285 18.4025 93.6285 18.0495 93.8254 17.8509C94.9848 16.6814 96.4067 14.806 97.1724 13.6145C97.3255 13.3718 97.6537 13.2835 97.9162 13.46C98.1568 13.6145 98.2443 13.9675 98.0693 14.2102C97.6755 14.806 96.9974 15.7327 96.6911 16.1078H96.7349ZM94.9411 13.5262C94.7223 13.7248 94.3942 13.7027 94.1973 13.5041C94.0004 13.2835 94.0223 12.9525 94.2192 12.7539C95.0286 12.0037 96.2974 10.5254 97.0411 9.51044C97.2161 9.26773 97.5443 9.2236 97.7849 9.37806C98.0256 9.53251 98.0693 9.88554 97.8943 10.1283C97.2818 10.9888 95.9692 12.5774 94.9192 13.5262H94.9411ZM108.154 14.0999H107.148V14.8721C107.148 15.9092 106.535 16.5491 105.507 16.5491H103.626V17.8729H106.907C107.192 17.8729 107.41 18.0936 107.41 18.3804C107.41 18.6673 107.192 18.91 106.907 18.91H103.626V20.2338H108.045C108.329 20.2338 108.57 20.4545 108.57 20.7634C108.57 21.0723 108.351 21.2709 108.045 21.2709H103.648V23.4332C103.648 23.7201 103.363 23.9848 103.057 23.9848C102.751 23.9848 102.532 23.7421 102.532 23.4332V21.2709H98.5287C98.2443 21.2709 98.0037 21.0502 98.0037 20.7634C98.0037 20.4766 98.2224 20.2338 98.5287 20.2338H102.576V18.91H99.5569C99.2725 18.91 99.0537 18.6673 99.0537 18.3804C99.0537 18.0936 99.2725 17.8729 99.5569 17.8729H102.576V16.5491H99.8631C99.5787 16.5491 99.36 16.3063 99.36 16.0195C99.36 15.7327 99.5787 15.512 99.8631 15.512H102.576V14.0999H98.9225C98.6381 14.0999 98.3974 13.8572 98.3974 13.5703C98.3974 13.2835 98.6381 13.0408 98.9225 13.0408H102.576V11.6507H99.8631C99.5787 11.6507 99.36 11.4301 99.36 11.1432C99.36 10.8564 99.5787 10.6137 99.8631 10.6137H102.554V9.64283C102.554 9.35599 102.773 9.11328 103.079 9.11328C103.385 9.11328 103.67 9.33393 103.67 9.64283V10.6137H105.507C106.535 10.6137 107.17 11.2535 107.17 12.2906V13.0408H108.176C108.46 13.0408 108.679 13.2835 108.679 13.5703C108.679 13.8572 108.46 14.0999 108.176 14.0999H108.154ZM106.12 13.0408V12.2906C106.12 11.8272 105.945 11.6507 105.485 11.6507H103.626V13.0408H106.12ZM106.12 14.0999H103.626V15.512H105.485C105.945 15.512 106.12 15.3355 106.12 14.8721V14.0999Z" fill="#2D3243"/>
<path d="M126.573 19.2186H125.436V19.8364C125.436 20.5866 124.933 21.2265 124.145 21.2265H120.317V22.1753C120.317 23.4771 119.639 23.8301 118.436 23.8301C117.232 23.8301 117.889 23.6095 117.889 23.3006C117.889 22.9917 118.129 22.749 118.436 22.749C118.982 22.749 119.267 22.8152 119.267 22.1532V21.2045H114.104C113.82 21.2045 113.601 20.9838 113.601 20.719C113.601 20.4543 113.82 20.2115 114.104 20.2115H119.267V19.1966H112.857C112.573 19.1966 112.376 18.9759 112.376 18.7111C112.376 18.4464 112.595 18.2037 112.857 18.2037H119.267V17.2108H114.104C113.82 17.2108 113.601 16.9901 113.601 16.7253C113.601 16.4606 113.82 16.2399 114.104 16.2399H119.267V15.2911H115.285C114.673 15.2911 114.214 14.8057 114.214 14.1879V13.3494C114.214 12.7316 114.695 12.2462 115.285 12.2462H119.267V11.3857H113.273C112.988 11.3857 112.792 11.165 112.792 10.9003C112.792 10.6355 113.01 10.4149 113.273 10.4149H119.245V9.48814C119.245 9.2013 119.486 8.93652 119.792 8.93652C120.098 8.93652 120.339 9.17923 120.339 9.48814V10.4149H126.267C126.552 10.4149 126.748 10.6355 126.748 10.9003C126.748 11.165 126.53 11.3857 126.267 11.3857H120.317V12.2462H123.905C124.517 12.2462 124.998 12.7316 124.998 13.3494V14.1879C124.998 14.8057 124.517 15.2911 123.905 15.2911H120.317V16.2399H124.145C124.933 16.2399 125.436 16.8798 125.436 17.63V18.2037H126.573C126.858 18.2037 127.055 18.4243 127.055 18.7111C127.055 18.998 126.836 19.1966 126.573 19.1966V19.2186ZM119.245 14.2982V13.2391H115.264C115.198 13.2391 115.176 13.2833 115.176 13.3494V14.1879C115.176 14.2541 115.198 14.2982 115.264 14.2982H119.245ZM124.014 13.3494C124.014 13.2833 123.97 13.2391 123.905 13.2391H120.317V14.2982H123.905C123.97 14.2982 124.014 14.2541 124.014 14.1879V13.3494ZM124.43 18.2257V17.652C124.43 17.4535 124.342 17.2328 124.123 17.2328H120.317V18.2257H124.43ZM124.43 19.2186H120.317V20.2336H124.123C124.342 20.2336 124.43 20.035 124.43 19.8364V19.2186Z" fill="#2D3243"/>
<path d="M136.724 17.1009C136.571 17.3216 136.264 17.3877 136.046 17.2554C135.827 17.1009 135.739 16.792 135.893 16.5714C136.089 16.2404 136.439 15.7329 136.549 15.5785H135.018V21.8448C135.018 23.0363 134.493 23.6762 133.289 23.6762C133.005 23.6762 132.764 23.4335 132.764 23.1466C132.764 22.8598 133.005 22.6391 133.289 22.6391C133.902 22.6391 133.989 22.4626 133.989 21.8448V17.3436C133.486 18.2483 132.786 19.4398 131.999 20.5651C131.846 20.7857 131.517 20.8519 131.299 20.6754C131.08 20.5209 131.014 20.19 131.189 19.9693C132.174 18.5792 133.005 17.0788 133.792 15.5564H131.802C131.517 15.5564 131.299 15.3357 131.299 15.071C131.299 14.8062 131.517 14.5635 131.802 14.5635H136.614C137.402 14.5635 137.861 15.424 137.402 16.108C137.183 16.439 136.964 16.7699 136.746 17.1009H136.724ZM134.711 13.019L135.127 13.4382C135.324 13.6368 135.302 13.9677 135.127 14.1663C134.93 14.3649 134.624 14.3428 134.427 14.1663L132.742 12.4011C132.546 12.2026 132.567 11.8937 132.742 11.6951C132.939 11.4965 133.267 11.5186 133.464 11.6951L134.033 12.3129C134.514 11.9157 135.324 11.1655 135.674 10.8125C135.761 10.7242 135.696 10.636 135.608 10.636H132.108C131.824 10.636 131.627 10.4153 131.627 10.1506C131.627 9.88578 131.846 9.64307 132.108 9.64307H135.696C136.724 9.64307 137.227 10.7463 136.461 11.4524L134.733 13.041L134.711 13.019ZM144.621 22.1758C144.249 23.3893 143.505 23.7203 142.302 23.7424C142.018 23.7424 141.799 23.5217 141.799 23.2349C141.799 22.948 142.018 22.7053 142.28 22.7053C143.046 22.7053 143.33 22.6612 143.593 21.8669C143.833 21.0946 143.943 20.1458 144.008 19.6163C144.03 19.4177 143.921 19.2632 143.702 19.2632H141.318C140.705 21.3373 139.699 22.7495 137.643 23.61C137.38 23.7203 137.096 23.61 136.964 23.3231C136.855 23.0584 136.964 22.7715 137.249 22.6391C138.758 22.0213 139.721 20.7857 140.246 19.2632H137.621C137.336 19.2632 137.118 19.0205 137.118 18.7337C137.118 18.4469 137.336 18.2262 137.621 18.2262H140.465C140.53 17.8732 140.574 17.4981 140.596 17.145C140.596 16.8582 140.88 16.6376 141.143 16.6376C141.405 16.6376 141.668 16.8803 141.668 17.1671C141.668 17.4539 141.602 17.9394 141.558 18.2262H143.702C144.533 18.2262 145.19 18.9764 145.08 19.7707C145.015 20.2561 144.927 21.2711 144.643 22.1758H144.621ZM144.818 16.7479C143.462 16.3948 142.39 15.777 141.602 15.1813C140.836 15.8653 139.808 16.5052 138.474 16.9244C138.211 17.0126 137.927 16.8803 137.839 16.5934C137.752 16.3286 137.927 16.0418 138.19 15.9535C139.305 15.6005 140.18 15.093 140.836 14.5193C140.29 13.9898 139.918 13.5264 139.677 13.1734C139.524 12.9528 139.59 12.6218 139.83 12.4894C140.049 12.335 140.355 12.4011 140.508 12.6439C140.793 13.0631 141.187 13.4823 141.558 13.8353C142.083 13.2175 142.477 12.5115 142.74 11.7613H139.611C139.327 12.1805 139.043 12.6439 138.715 13.0851C138.561 13.3058 138.233 13.3499 137.993 13.1734C137.774 13.019 137.73 12.688 137.905 12.4453C138.518 11.6289 139.283 10.4153 139.765 9.51068C139.896 9.26797 140.202 9.15765 140.443 9.29003C140.683 9.42242 140.793 9.73133 140.661 9.97404C140.574 10.1726 140.377 10.4815 140.246 10.7242H144.862C145.146 10.7242 145.343 10.9449 145.343 11.2317C145.343 11.5186 145.124 11.7171 144.862 11.7171H143.812C143.527 12.71 143.024 13.6588 142.346 14.4311C143.046 14.9386 143.965 15.4461 145.102 15.755C145.365 15.8212 145.518 16.108 145.452 16.3728C145.387 16.6376 145.102 16.792 144.84 16.7258L144.818 16.7479Z" fill="#2D3243"/>
<path d="M156.084 16.8794C156.084 17.7179 155.537 18.2695 154.706 18.2695H151.643C151.643 20.5642 151.118 22.3515 150.637 23.3223C150.484 23.5871 150.156 23.6974 149.893 23.5429C149.631 23.3885 149.543 23.0575 149.674 22.7927C150.309 21.4689 150.571 19.6154 150.571 18.1812V14.3641C150.571 13.5697 151.162 12.974 151.949 12.974H154.706C155.493 12.974 156.084 13.5697 156.084 14.3641V16.8574V16.8794ZM155.756 10.8337H150.615C150.331 10.8337 150.068 10.591 150.068 10.2821C150.068 9.97321 150.331 9.7305 150.615 9.7305H155.756C156.04 9.7305 156.303 9.99527 156.303 10.2821C156.303 10.569 156.04 10.8337 155.756 10.8337ZM155.012 14.3861C155.012 14.1875 154.903 14.0993 154.706 14.0993H151.949C151.753 14.0993 151.643 14.1875 151.643 14.3861V17.1883H154.706C154.925 17.1883 155.012 17.1001 155.012 16.8794V14.3861ZM163.784 15.2687H162.362V23.1237C162.362 23.4326 162.122 23.6753 161.815 23.6753C161.509 23.6753 161.268 23.4326 161.268 23.1237V15.2687H158.753V16.1292C158.753 19.108 157.506 21.8881 156.5 23.2561C156.325 23.4988 155.953 23.5429 155.712 23.3444C155.471 23.1678 155.428 22.8148 155.625 22.5721C156.915 20.829 157.637 18.2254 157.637 16.1072V11.3191C157.637 10.4586 158.25 9.79669 159.081 9.77463C160.35 9.7305 162.1 9.55398 163.106 9.42159C163.39 9.39953 163.675 9.59811 163.719 9.90701C163.74 10.1939 163.544 10.4586 163.237 10.5248C162.297 10.6793 160.656 10.8117 159.125 10.8779C158.862 10.8779 158.731 11.0544 158.731 11.3191V14.1875H163.762C164.047 14.1875 164.309 14.4082 164.309 14.7171C164.309 15.026 164.069 15.2687 163.762 15.2687H163.784Z" fill="#2D3243"/>
<path d="M2.93136 25.4846C4.55031 25.4846 5.86272 24.1609 5.86272 22.5279C5.86272 20.895 4.55031 19.5713 2.93136 19.5713C1.31241 19.5713 0 20.895 0 22.5279C0 24.1609 1.31241 25.4846 2.93136 25.4846Z" fill="#FC7216"/>
<path d="M9.12221 17.497C11.2365 17.497 12.9505 15.7683 12.9505 13.6357C12.9505 11.5032 11.2365 9.77441 9.12221 9.77441C7.00792 9.77441 5.29395 11.5032 5.29395 13.6357C5.29395 15.7683 7.00792 17.497 9.12221 17.497Z" fill="#FC7216"/>
<path d="M19.4257 11.606C22.6032 11.606 25.179 9.0079 25.179 5.80299C25.179 2.59809 22.6032 0 19.4257 0C16.2482 0 13.6724 2.59809 13.6724 5.80299C13.6724 9.0079 16.2482 11.606 19.4257 11.606Z" fill="#FC7216"/>
</svg>
